<svg xmlns="http://www.w3.org/2000/svg" viewBox="0 0 288.01 288.16"><title>fkoplogo</title><g id="Layer_2" data-name="Layer 2"><g id="Layer_1-2" data-name="Layer 1"><g id="Layer_2-2" data-name="Layer 2"><g id="Layer_1-2-2" data-name="Layer 1-2"><g id="Layer_2-2-2" data-name="Layer 2-2"><g id="Layer_1-2-2-2" data-name="Layer 1-2-2"><rect width="144" height="144" style="fill:#2e3192"/><rect x="144.01" y="144" width="144" height="144" style="fill:#fff200"/><rect y="144" width="144" height="144" style="fill:#ec008c"/><rect x="144.01" width="144" height="144" style="fill:#00aeef"/><path id="P" d="M196.75,235.68V288H144V144h72.31q27,0,41.12,5.27a48.75,48.75,0,0,1,22.33,16.14A39.31,39.31,0,0,1,288,189.78q0,20.57-16.87,33.23t-45,12.66ZM196,204.76h17.36q22.94,0,22.95-14.35,0-13.5-21.21-13.5H196Z" style="fill:#fff"/><path id="O" d="M122.16,265.86q-22,21.94-49.43,22.3T22.66,265.94Q1,244.35.07,217.05T22.76,166.3q21.86-21.71,48.9-22.13T121,165.91q23,22.93,23.05,50.54T122.16,265.86ZM100,244.16q8.1-8.07,5.12-18.14T84.75,198.58Q59.54,173.47,44.94,188q-15.76,15.7,13,44.34Q84.91,259.23,100,244.16Z" style="fill:#fff"/><polygon id="K" points="243.68 52.7 286.45 0 239.74 0 193 59.54 193 0 144 0 144 144 193 144 193 110.77 210.56 89.58 239.88 144 288 144 288 135.89 243.68 52.7" style="fill:#fff"/><path id="F" d="M124.48,90.09H59.56V144H0V0H144V34.29H59.56V57.71h64.92Z" style="fill:#fff"/></g></g></g></g></g></g></svg>